# xmcd
#
# Track frame offsets: 
#        150
#        26262
#        44860
#        65037
#        89882
#        105590
#        122087
#        139607
#        157457
#        181955
#        207572
#        240290
#        270485
#        297937
#
# Disc length: 4271 seconds
#
# Revision: 9
# Processed by: cddbd v1.5.2PL0 Copyright (c) Steve Scherf et al.
# Submitted via: ExactAudioCopy v0.99pb4
#
DISCID=d810ad0e
DTITLE=Various Artist - Ghar, Masoom and Ijaazat
DYEAR=1990
DGENRE=Hindi Film
TTITLE0=Lata Mangeshkar - Tere Bina Jiya  (Ghar 1978)
TTITLE1=Kishore Kumar, Lata Mangeshkar - Aap Ki Ankhon  (Ghar 1978)
TTITLE2=Kishore Kumar - Phir Wohi Raat Hai  (Ghar 1978)
TTITLE3=Lata Mangeshkar - Aaj Kal Paon  (Ghar 1978)
TTITLE4=Asha Bhosle, Mohammedd Rafi - Botal Se Ek Baat  (Ghar 1978)
TTITLE5=Lata Mangeshkar - Tujhse Naraaz Nahin Zindagi (Masoom 1983)
TTITLE6=Bhupinder, Suresh Wadkar - Huzur Is Kadar (Masoom 1983)
TTITLE7=Vanita Mishra, Gurpreet Kaur, Gauri Bapat - Lakdi Ki Kathi (Ma
TTITLE7=soom 1983)
TTITLE8=Aarti Mukherjee - Do Naina Aur Ek Kahani (Masoom 1983)
TTITLE9=Anup Ghoshal - Tujhse Naraaz Nahin Zindagi  (Masoom 1983)
TTITLE10=Asha Bhosle - Chhotisi Kahani Se (Ijaazat 1987)
TTITLE11=Asha Bhosle - Mera Kuchh Saamaan (Ijaazat 1987)
TTITLE12=Asha Bhosle - Katra Katra (Ijaazat 1987)
TTITLE13=Asha Bhosle - Khali Haath Sham Aayi Hai (Ijaazat 1987)
EXTD=
EXTT0=
EXTT1=
EXTT2=
EXTT3=
EXTT4=
EXTT5=
EXTT6=
EXTT7=
EXTT8=
EXTT9=
EXTT10=
EXTT11=
EXTT12=
EXTT13=
PLAYORDER=
